<svg id="Layer_1" data-name="Layer 1" xmlns="http://www.w3.org/2000/svg" viewBox="0 0 273.67 273.35"><defs><style>.cls-1{fill:#f37979;}.cls-2{font-size:24.03px;font-family:Roboto-Bold, Roboto;font-weight:700;}.cls-2,.cls-3{fill:#9bc2be;}</style></defs><rect class="cls-1" width="273.67" height="273.35" rx="24.45"/><text class="cls-2" transform="translate(48.26 219.09)">Ch1. Installation <tspan x="16.53" y="28.84">and First App</tspan></text><path class="cls-3" d="M157.18,156a109.7,109.7,0,0,0,6.55,31.17,2.37,2.37,0,0,0,1.76,1.22c2.73.14,5.47,0,8.21.07,2.07,0,3.13.92,3,2.66-.1,2.13-1.42,2.6-3.12,2.6H99.33c-2.09,0-3.09-.9-3.09-2.64s1-2.6,3.11-2.61c2.6,0,5.2,0,7.8-.05a2.07,2.07,0,0,0,1.55-.91c2.94-5.88,6.72-24.19,6.53-31.5h-2.4c-19.23,0-38.45-.1-57.67.07-4.64,0-8.68-3-8.66-9.21Q46.71,85,46.5,23c0-6.29,4-9.27,8.57-9.26q81.48.18,163,0c4.49,0,8.49,3.05,8.47,9.15q-.21,61.94,0,123.88c0,6.44-4,9.36-8.76,9.32-19.36-.18-38.72-.07-58.08-.07Zm-33.74-23.89c0-.66.14-1.24.14-1.81,0-12.63,0-25.26-.06-37.89a4.37,4.37,0,0,0-1.46-2.8c-13.36-11.42-11.37-34.2,3.75-42.49,3.09-1.69,4.68-.67,4.69,3.08,0,5.76-.05,11.52.07,17.28a4.36,4.36,0,0,0,1.29,2.89c4.66,3.83,4.67,3.74,9.47,0a3.16,3.16,0,0,0,1.35-2.91c-.07-5.69,0-11.37,0-17.06,0-4.19,1.39-5.11,4.79-3.18,14.94,8.45,16.87,30.68,3.64,42.18A4,4,0,0,0,149.49,93c.06,12.26,0,24.52,0,36.78v2.34h72V22.65c0-2.92-.63-3.55-3.45-3.55q-81.56,0-163.13,0c-3,0-3.54.54-3.54,3.88V132.14Zm98.11,5.53H51.44v8.54c0,4.19.36,4.57,4.19,4.57H217.36a14.25,14.25,0,0,0,1.85,0,2.37,2.37,0,0,0,2.33-2.54C221.57,144.75,221.55,141.29,221.55,137.67Zm-101.2,18.46a124.68,124.68,0,0,1-6.6,32.23h44.79c-1.35-5.33-2.88-10.52-4-15.81s-1.75-10.86-2.61-16.42Zm13.72-24V101.51c0-.44,0-.88,0-1.33,0-2.08,1-3.47,2.52-3.28,1.72.22,2.37,1.44,2.36,3.26q0,14.84,0,29.69v2.23h5.71V129.5c0-12.78,0-25.55,0-38.33a5.32,5.32,0,0,1,2.38-4.9c10-7.34,10.88-22.72,1.94-31.42a14.45,14.45,0,0,0-1.47-1.11c0,3.77,0,7.16,0,10.55-.13,9.75,1.27,6.71-6,12.41-5.53,4.35-4.36,4.39-9.91,0-7.34-5.78-5.86-2.63-6-12.61,0-3.35,0-6.7,0-10.49-.73.61-1.11.89-1.45,1.22-9,8.73-8,24.2,2.06,31.56a5,5,0,0,1,2.24,4.53c-.07,12.85,0,25.7,0,38.55v2.66Z" transform="translate(0.22 0.16)"/><path class="cls-3" d="M181.93,33.75a2.49,2.49,0,0,1-2.45-2.64,2.43,2.43,0,1,1,4.85-.1A2.54,2.54,0,0,1,181.93,33.75Z" transform="translate(0.22 0.16)"/><path class="cls-3" d="M196.35,33.74a2.48,2.48,0,0,1-2.51-2.59A2.44,2.44,0,1,1,198.7,31,2.54,2.54,0,0,1,196.35,33.74Z" transform="translate(0.22 0.16)"/><path class="cls-3" d="M210.62,28.42a2.42,2.42,0,0,1,2.45,2.65,2.37,2.37,0,0,1-2.45,2.62A2.34,2.34,0,0,1,208.21,31,2.38,2.38,0,0,1,210.62,28.42Z" transform="translate(0.22 0.16)"/><path class="cls-3" d="M139,144.59c-.13,1.59-.84,2.63-2.4,2.67a2.3,2.3,0,0,1-2.49-2.52,2.36,2.36,0,0,1,2.34-2.72C137.9,142,138.77,143,139,144.59Z" transform="translate(0.22 0.16)"/></svg>